<svg aria-hidden="true" style="position:absolute;width:0;height:0" xmlns="http://www.w3.org/2000/svg" overflow="hidden"><defs><symbol id="icon-antenna" viewBox="0 0 32 32"><path fill="var(--color1, #212121)" d="M30.629 21.943L22.4 13.714l.914-4.571h.914a2.286 2.286 0 10-2.281-1.357l-.006-.015-5.029.457L9.141-.001h-.914L6.856 1.828v.457l.457.914c-1.11 2.049-1.762 4.486-1.762 7.076 0 4.209 1.723 8.015 4.503 10.751l.002.002v6.857h-6.4c-1.371 0-2.743.914-2.743 2.743v.914l.914.457h24.229l.457-.457v-.914c0-1.829-.914-2.743-2.286-2.743h-6.4v-2.743c.748.132 1.61.207 2.49.207 2.787 0 5.398-.756 7.638-2.074l-.071.038.457.914.457.457 1.829-1.829v-.914zM23.314 6.4a1.022 1.022 0 01.92 1.826l-.006.003a1.022 1.022 0 01-.92-1.826l.006-.003zm-1.371 3.2l-.457 3.2-1.371-1.371L21.944 9.6zm-.457-.914l-1.829 2.286-1.829-1.829 3.657-.457zM24.229 28.8c.457 0 1.371.914 1.371 1.829v.457H2.286v-.457c0-.914.457-1.829 1.371-1.829h20.571zm-7.772-2.286v1.371h-5.029v-1.371h5.029zm-5.028-.914v-4.114c0-1.371.914-2.286 2.286-2.286 1.829 0 2.743.914 2.743 2.286V25.6h-5.029zm6.4-1.829v-2.286c0-1.829-1.829-3.2-4.114-3.2-1.371 0-2.286.457-3.2 1.829-4.114-4.571-5.029-10.971-2.286-16l18.743 18.743c-2.743 1.371-6.4 1.829-9.143.914zm10.971-.457l-.457-.914L7.772 1.829l.914-.457 21.029 21.029-.914.914z"/><path fill="var(--color2, #2196f3)" d="M13.714 20.114a1.83 1.83 0 00-.009 3.195l.009.005a1.6 1.6 0 100-3.2zm.457 2.286a.511.511 0 01-.46-.913l.003-.001a.511.511 0 01.46.913l-.003.001z"/></symbol><symbol id="icon-astronaut" viewBox="0 0 32 32"><path fill="var(--color2, #2196f3)" d="M32 4.571l-.457-.457-1.829-.457-.914-1.371h-.914l-.914 1.371-1.829.457a.511.511 0 00-.46.913l.003.001 1.371 1.371-.457 1.829a.511.511 0 00.913.46l.001-.003 1.829-.914 1.829.914a.458.458 0 00.457-.457V6.399L32 5.028v-.457zm-2.286 1.372l-.457.457.457.914-1.371-.457a.457.457 0 00-.46.001l.002-.001-.914.457.457-.914-1.371-1.371h1.371l.457-.457.457-.914.457.914.457.457h.914l-.457.914zm-3.657 14.628h-.914v.914h.914v-.914zm0 2.286h-.914v.914h.914v-.914zm1.372-1.371h-1.371v1.371h1.371v-1.371zm-2.286 0h-.914v1.371h.914v-1.371zM22.4 26.514h-.914v.914h.914v-.914zm0 1.829h-.914v1.371h.914v-1.371zm.914-.914H22.4v.914h.914v-.914zm-1.828 0h-1.371v.914h1.371v-.914zM16 24.229h-.914v.914H16v-.914zm0 2.285h-.914v.914H16v-.914zm.914-1.371H16v1.371h.914v-1.371zm-1.828 0h-1.371v1.371h1.371v-1.371zm-9.143-19.2H4.572v1.371h1.371V5.943zm0 2.286H4.572v.914h1.371v-.914zm.914-.915h-.914v.914h.914v-.914zm-2.286 0h-.914v.914h.914v-.914z"/><path fill="var(--color1, #212121)" d="M24.686 14.171l-1.371-.914-.914.457-1.371.914-1.829 1.371-1.371-.457c2.677-.975 4.555-3.498 4.555-6.459a6.857 6.857 0 00-7.79-6.794l.036-.004a6.857 6.857 0 00-5.473 10.989l-.012-.017h-3.2l-3.2 1.371-1.829.914a1.843 1.843 0 101.837 3.195l-.009.005 1.371-.914 2.286-.914h1.371L.916 23.771c-.25.31-.401.709-.401 1.143s.151.833.404 1.146l-.003-.004c.31.25.709.401 1.143.401s.833-.151 1.146-.404l-.004.003 1.371-1.371 1.829-1.371.914.914-3.2 3.2c-.25.31-.401.709-.401 1.143s.151.833.404 1.146l-.003-.004c.31.25.709.401 1.143.401s.833-.151 1.146-.404l-.004.003 4.571-4.571L16 19.656l3.657.457h.457l3.2-2.286 1.371-1.371V14.17zm-22.4 3.658h-.914a.913.913 0 01-.001-1.371l.001-.001L2.743 16l.457.914v.457l-.914.457zM5.486 16l-1.371.914L3.658 16v-.457l1.829-.914V16zm15.085-6.857l-.457 2.743L16 10.057l-.914-1.371 1.371-5.029c2.743.914 4.114 3.2 4.114 5.486zm-11.428 0c.235-3.088 2.799-5.505 5.927-5.505.167 0 .332.007.495.02l-.021-.001-1.371 4.571c-.914 0-1.829.914-1.829 1.829a1.831 1.831 0 001.808 1.557c.556 0 1.054-.248 1.39-.64l.002-.002 4.114 1.829a5.942 5.942 0 01-10.514-3.65v-.007zm5.943.914l-.914.914-.914-.914.914-.914.914.914zm-12.8 15.086h-.457a.458.458 0 010-.914l.914-.914.457.914-.914.914zm3.2 3.657h-.457a.458.458 0 010-.914l.914-.914.914.914-1.371.914zm3.657-3.2l-1.829 1.371h-.457l-.457-.457 1.829-1.829v-.914L6.4 21.942h-.457l-1.829 1.371-.914-.914 2.743-2.286 4.114 4.571-.914.914zM16 18.286a.458.458 0 00-.457.457l-4.571 5.029-4.571-4.114 2.743-3.2a.458.458 0 000-.914H6.858v-1.371h3.2a6.833 6.833 0 004.769 1.93c.415 0 .821-.037 1.216-.107l-.042.006h.457l2.286 1.371v.457l.457.914-3.2-.457zm4.114.457l-.457-1.829L21.028 16l.457.457.457.914-1.829 1.371zm3.657-3.2l-.914.914-.914-1.371.914-.457h.457a.916.916 0 01.457.919v-.005z"/><path fill="var(--color1, #212121)" d="M13.714 18.743l-2.286-2.286h-.914l-1.829 2.286a.46.46 0 00.001.46l-.001-.002 1.829 2.286a.458.458 0 00.914 0l2.286-2.286a.46.46 0 00-.001-.46l.001.002zm-2.743 1.371L9.6 18.743l1.371-1.371 1.371 1.371-1.371 1.371zm6.4-15.085l-.457.914s1.829.457 1.829 2.286h.914c0-1.829-1.829-2.743-2.286-3.2zm2.286 4.114h-.914v1.371h.914V9.143z"/></symbol><symbol id="icon-clock" viewBox="0 0 32 32"><path fill="var(--color1, #212121)" d="M31.086 15.086C30.944 6.864 24.245.253 16.002.253 7.67.253.916 7.007.916 15.339c0 6.698 4.365 12.376 10.405 14.346l.107.03h.457l.457-.457 3.657-11.886a1.885 1.885 0 10-.927-3.655l.013-.003-5.029-5.029a.645.645 0 00-1.103.457c0 .179.072.34.189.457l5.029 5.029c-.457.457 0 1.829.457 2.286l-3.657 11.429C5.4 26.35 1.485 21.116 1.485 14.969 1.485 7.142 7.83.798 15.656.798s14.171 6.345 14.171 14.171c0 5.715-3.383 10.639-8.255 12.881l-.088.036v-1.829a.686.686 0 10-1.372 0l-3.657 3.2a.686.686 0 100 1.372L21.484 32a.645.645 0 001.103-.457.643.643 0 00-.189-.457l-.457-1.829c5.486-2.286 9.143-7.771 9.143-14.171zM16 14.629a.686.686 0 110 1.372.686.686 0 110-1.372zm2.286 15.085l1.829-2.286.914 3.2-2.743-.914z"/><path fill="var(--color2, #2196f3)" d="M15.543 3.2v1.371a.458.458 0 00.914 0V3.2a.458.458 0 00-.914 0zM3.657 14.629a.686.686 0 100 1.372h1.371a.686.686 0 100-1.372H3.657zM27.886 16a.686.686 0 100-1.372h-.914a.686.686 0 100 1.372h.914z"/></symbol><symbol id="icon-diagram" viewBox="0 0 32 32"><path fill="var(--color2, #2196f3)" d="M15.086 15.086H16v4.571h-.914v-4.571zm4.114 1.828h.914v2.743H19.2v-2.743zm-8.686 1.829h1.371v.914h-1.371v-.914zm-3.2-.457h1.371v1.371H7.314v-1.371z"/><path fill="var(--color1, #212121)" d="M1.371 28.343h25.6c.914 0 1.829-.914 1.829-1.829v-1.829c0-.914-.914-1.829-1.829-1.829h-.457V9.599l3.2-2.743a1.83 1.83 0 10-.91-.903l-.005-.011-2.286 2.286V6.857c0-.914-.457-1.371-1.371-1.371H3.656c-.914 0-1.371.457-1.371 1.371v16h-.914c-.457 0-1.371.914-1.371 1.829v1.829c0 .914.914 1.829 1.371 1.829zm28.8-23.314a.458.458 0 010 .914.458.458 0 010-.914zM3.2 6.857l.457-.457h21.486l.457.457v2.286l-.914.914V8.228l-.914-.914h-19.2l-.457.914v13.257l.457.457h19.2l.914-.457v-9.6l.914-1.371v12.343H3.2v-16zm4.571 6.857a1.533 1.533 0 101.379 2.738l-.009.004 1.829.914h.457l4.114-4.571 3.657 3.2h.914l3.2-3.2v8.229H5.483V8.685h17.829v2.743l-3.657 3.2-3.657-2.743h-.914l-4.114 4.571-1.371-.914c0-.914-.914-1.829-1.829-1.829zm.915 1.829a.686.686 0 11-1.372 0 .686.686 0 111.372 0zm3.2 8.686h5.029v.457l-.457.457h-4.114l-.457-.457v-.457zm-10.972.457l.457-.457h9.143v.457c0 .914.914 1.371 1.829 1.371h4.114c.914 0 1.829-.457 1.829-1.371v-.457h8.686l.914.457v1.829l-.914.914h-25.6l-.457-.914v-1.829z"/></symbol><symbol id="icon-facebook" viewBox="0 0 32 32"><path d="M20.8 4.8H24V0h-4.8c-3.2 0-6.4 3.2-6.4 8v4.8H8v4.8h4.8V32h6.4V17.6h3.2l1.6-4.8h-4.8V8l1.6-3.2z"/></symbol><symbol id="icon-instagram" viewBox="0 0 32 32"><path  d="M32 9.6V4.8l-3.2-1.6-1.6-1.6L22.4 0C16.139.06 10.057.64 4.141 1.698L4.8 1.6 1.6 4.8 0 9.6c.06 6.261.64 12.343 1.698 18.259L1.6 27.2l3.2 3.2L9.6 32a117.703 117.703 0 0018.296-1.7l-.696.1 4.8-3.2v-4.8c.112-1.912.175-4.149.175-6.4s-.064-4.488-.189-6.708L32 9.6zm-3.2 12.8v3.2l-3.2 3.2h-3.2c-2.394.182-5.185.286-8 .286s-5.606-.104-8.369-.308l.369.022-3.2-3.2v-3.2c-.182-2.394-.286-5.185-.286-8s.104-5.606.308-8.369L3.2 6.4l3.2-3.2h3.2c2.394-.18 5.185-.282 8-.282s5.606.102 8.37.304L25.6 3.2l3.2 3.2v3.2a113.784 113.784 0 01-.014 13.106l.014-.306z"/><path d="M16 8a8 8 0 000 16 8 8 0 000-16zm0 12.8a4.8 4.8 0 110-9.6 4.8 4.8 0 110 9.6zM27.2 8a2.4 2.4 0 01-4.8 0 2.4 2.4 0 014.8 0z"/></symbol><symbol id="icon-linkedin" viewBox="0 0 32 32"><path d="M32 32V20.8c0-6.4-1.6-11.2-8-11.2l-6.4 3.2v-1.6h-6.4V32h6.4V20.8c0-1.6 1.6-4.8 4.8-4.8s3.2 3.2 3.2 4.8V32H32zM0 11.2h6.4V32H0V11.2zM3.2 0L0 3.2C0 6.4 1.6 8 3.2 8 6.4 8 8 6.4 8 3.2 8 1.6 6.4 0 3.2 0z"/></symbol><symbol id="icon-logo-1" viewBox="0 0 29 32"><path fill="var(--color3, #afb1b8)" d="M3.84 0l4.48 4.48h13.44v12.16l4.48 4.48V0H3.84z"/><path fill="var(--color3, #afb1b8)" d="M0 4.48v20.48h21.76v-8.32L8.96 4.48H0zm17.92 17.28H3.2V7.68h1.28v13.44h13.44v.64zM6.4 28.8v1.28h-.64V28.8l-.64-1.28h.64l.64 1.28zm1.92.64h-.64v.64h-.64l.64-2.56h.64l.64 2.56-.64-.64zm-.64-.64h.64v-.64l-.64.64zm2.56.64v-1.92h1.28v.64l-.64.64 1.28 1.28h-.64v-.64l-.64.64-.64-.64zm.64 0v-.64l-.64.64h.64zm3.84-.64v.64l-.64.64h-.64l-.64-.64v-1.28a.716.716 0 011.278-.645l.002.004h.64v.64h-1.28v1.28h.64v-.64h.64zm1.92 0v.64l-.64.64-1.28-1.28.64-.64v-.64h1.28v1.28zm0 0v-.64h-1.28v1.28h1.28v-.64z"/></symbol><symbol id="icon-logo-2" viewBox="0 0 25 32"><path fill="var(--color3, #afb1b8)" d="M10.462 1.846h.615l1.846.615V.615A12.503 12.503 0 009.891.002l-.045-.003h-.021c-3.39 0-6.567.914-9.298 2.509l.088-.047v17.846c2.306-1.322 5.026-2.203 7.926-2.456l.074-.005h1.231V16a20.902 20.902 0 00-6.914 1.277l.145-.047h-.615V3.692c2.149-1.109 4.681-1.784 7.365-1.846h.635z"/><path fill="var(--color3, #afb1b8)" d="M14.769 3.692a15.992 15.992 0 01-3.19-.646l.113.03v17.231l3.077.615h.021c3.39 0 6.567-.914 9.298-2.509L24 18.46V1.229c-2.662 1.501-5.835 2.407-9.215 2.461h-.016zm6.769 0h.615V17.23c-2.269 1.176-4.953 1.866-7.798 1.866-.287 0-.573-.007-.857-.021l.04.002h-.615V4.923h1.846a20.902 20.902 0 006.914-1.277l-.145.047zM1.846 25.846a.618.618 0 00-.619.002l.003-.002H.615a1.24 1.24 0 00-.612.608L0 26.462v3.077h.615v.615h.615a1.232 1.232 0 00.615-1.237l.001.006h-.615v.615a.618.618 0 01-.619-.002l.003.002v-3.077a.618.618 0 01.619.002l-.003-.002v.615h.615v-.615a1.217 1.217 0 00-.002-.624l.002.009zm3.692 0a1.223 1.223 0 00-1.236.003l.006-.003h-.615v3.692l.615.615a1.217 1.217 0 00.624-.002l-.009.002.615-.615a1.217 1.217 0 00-.002-.624l.002.009v-3.077zm-.615 3.077a.618.618 0 01-.002.619l.002-.003a.618.618 0 01-.619-.002l.003.002a.618.618 0 01.002-.619l-.002.003v-2.462a.618.618 0 01.619.002l-.003-.002v2.462zm4.923 1.231v-4.308h-.615l-.615 1.846-.615-1.846h-.615v4.308h.615v-2.462l.615 1.231.615-1.231v2.462h.615zm3.692-4.308h-1.846v4.308h.615v-1.846h1.231v-.615a3.095 3.095 0 00-.004-1.25l.004.02v-.615zm-.615 1.231v.615h-.615v-1.231h.615v.615zm3.692-1.231H16l-1.231 4.308h.615l.615-1.231h.615v1.231h.615l-.615-4.308zM16 28.308v-1.231l.615 1.231H16zm4.308 0l-1.231-2.462v1.846h.615l.615 2.462h.615v-4.308h-.615v2.462zM24 25.846l-.615 1.846-.615-1.846h-.615l1.231 2.462v1.846h.615v-1.846l.615-2.462h-.615zM0 31.385V32h.615v-1.231H0v.615zm2.462-.616L1.847 32h1.231l-.615-1.231zm2.461.616V32l-.615-.615h1.231l-.615-.615-.615.615V32a.618.618 0 00.619-.002L4.925 32h.615v-.615h-.615zm2.462-.616zm1.846 0zm2.461.616l-.615-.615v.615l.615.615v-.615zm1.846 0v-.615h-.615v1.231h.615v-.615zm4.308 0h-.615.615zm1.846 0h.615v-.615h-.615v.615zm2.462 0v-.615h-.615v.615h.615zm0 0zm1.846 0h.615v-.615H24v.615z"/></symbol><symbol id="icon-logo-3" viewBox="0 0 31 32"><path fill="var(--color3, #afb1b8)" d="M4.465 31.256L3.721 32l-.744-.744a1.457 1.457 0 01.003-.754l-.002.01a1.457 1.457 0 01.003-.754l-.002.01c.152-.332.413-.592.735-.74l.009-.004a1.457 1.457 0 01.754.003l-.01-.002h.744l-.744.744v-.744a.74.74 0 00-.748.002l.003-.002-.744.744v1.488h1.488zm4.465-.744v.744H6.697v-2.233H8.93v1.488zm0 0v-.744h-.744v-.744h-.744a.744.744 0 00-.744.744v1.488h1.488a.744.744 0 00.744-.744zm2.977 0h.744l.744-1.488v.744l-.744 1.488h-.744l-.744-1.488v2.233h-.744v-2.977h.744l.744 1.488zm3.721 0V32v-2.977h1.488v1.488h-1.488zm0 0h1.488v-.744a.74.74 0 00-.002-.748l.002.003h-1.488v1.488zM20.837 32v-.744h-2.233V32l.744-2.977h.744L20.836 32zm-1.488-1.488h.744l-.744-.744v-.744 1.488zm2.977-1.489h.744l1.488 2.233-1.488-1.488v2.233h-.744v-2.977zm5.209 1.489V32h-.744v-1.488l-.744-1.488h.744l.744.744a1.457 1.457 0 01-.003.754l.002-.01v-.744l.744-.744-.744 1.488zm-15.628-5.954h.744l5.954-5.209c1.488-2.233 2.233-5.209 2.233-7.442L17.861 8.93c.744 2.977.744 5.954-.744 8.186-.744 2.977-2.977 5.209-5.209 7.442z"/><path fill="var(--color3, #afb1b8)" d="M11.163 23.814c2.233-1.488 4.465-3.721 5.209-6.698 1.488-2.977 1.488-5.954.744-8.93l-3.721-3.721c1.18 2.32 1.871 5.058 1.871 7.958 0 4.343-1.55 8.324-4.127 11.419l.023-.029zm13.395-8.93c-.953 3.843-3.379 6.999-6.63 8.894l-.067.036 5.209-2.977c1.488-.744 2.233-2.977 2.977-4.465l-1.488-1.488z"/><path fill="var(--color3, #afb1b8)" d="M23.814 14.14l-2.233-2.233c0 2.977-.744 5.209-2.233 7.442l-5.209 5.209h1.488c2.233-.744 3.721-2.233 5.209-4.465 1.488-1.488 2.977-3.721 2.977-5.954zM11.163 2.977L8.186 0C5.953.744 3.721 2.233 2.232 4.465S-.001 8.93-.001 11.907s.744 5.209 2.977 7.442c1.488 2.233 4.465 3.721 7.442 4.465a17.746 17.746 0 003.74-10.936 17.78 17.78 0 00-3.036-9.965l.04.064zM30.512 14.14c0-3.721-1.488-6.698-3.721-8.93a13.35 13.35 0 00-9.394-3.846c-1.706 0-3.337.319-4.837.9l.091-.031 17.116 16.372.744-4.465z"/></symbol><symbol id="icon-logo-4" viewBox="0 0 60 32"><path fill="var(--color2, #2196f3)" d="M8.93 9.674c-1.488 0-2.977 1.488-2.977 2.977s1.488 2.977 2.977 2.977c2.233 0 2.977-1.488 2.977-2.977s-.744-2.977-2.977-2.977zM32 8.93c0-2.977-1.488-4.465-2.977-6.698C27.535.744 25.302-.001 23.069-.001l-6.698 2.233c-1.488 2.233-2.233 3.721-2.233 6.698v11.907s17.86-1.488 17.86-11.907zM0 25.302l1.488 4.465c1.096 1.239 2.69 2.016 4.465 2.016s3.369-.777 4.46-2.009l.005-.006c1.488-1.488 1.488-2.977 1.488-4.465v-8.93S-.001 17.861-.001 25.303zm5.954 1.489H5.21l-.744-.744a1.49 1.49 0 01.733-2.229l.01-.003c.213-.125.47-.199.744-.199s.531.074.751.203l-.007-.004.744.744c.125.213.199.47.199.744s-.074.531-.203.751l.004-.007a1.49 1.49 0 01-1.496.744l.008.001zm12.651-.744h-1.488v1.488-3.721h1.488v.744h-1.488v.744h1.488v.744zm2.976-.745v1.488a1.496 1.496 0 01-.735.74l-.009.004-.744-.744h-.744v-2.233c.152-.332.413-.592.735-.74l.009-.004h.744l.744.744v.744zm-.744 0v-.744h-.744v2.233h.744v-1.488zm2.977.745h-.744v-.744l-.744-.744.744-.744h.744l.744.744v.744h-.744v-.744h-.744v.744h.744l.744.744v.744l-1.488.744v-.744h-.744v-.744h.744v.744h.744v-.744zm3.721-1.489h-.744v2.977h-.744v-2.977h-1.488v-.744h2.977v.744zm2.232 1.489h-1.488v.744h1.488v.744h-2.233v-3.721h2.233v.744h-1.488v.744h1.488v.744zm1.489 0v1.488h-.744v-3.721h.744l1.488 1.488-.744.744.744.744v.744H32l-.744-1.488zm0-.745H32v-.744h-.744v.744zm3.721.745v1.488h-.744v-3.721h2.233v2.233h-1.488zm0-.745h.744v-.744h-.744v.744zm3.721.745h-.744v.744h1.488v.744h-2.233v-3.721h2.233v.744h-1.488v.744h.744v.744zm3.721-1.489h-1.488v2.977h-.744v-2.977h-.744v-.744h2.977v.744zm2.232 1.489h-1.488v.744h1.488v.744h-2.233v-3.721h2.233v.744h-1.488v.744h1.488v.744zm1.489 0h-.744v1.488h-.744v-3.721h1.488l1.488 1.488h-.744v.744l.744.744v.744h-.744l-.744-1.488zm-.745-.745h1.488v-.744h-1.488v.744zm4.465.745h-.744l-1.488-1.488.744-.744h1.488v1.488l-.744-.744h-.744v.744h.744l.744.744v.744l-.744.744-.744-.744h-.744v-.744h.744l.744.744.744-.744z"/></symbol><symbol id="icon-logo-5" viewBox="0 0 40 32"><path fill="var(--color3, #afb1b8)" d="M2.723 26.553l.681.681a1.36 1.36 0 01-.675 1.358l-.007.003H-.001V24.51h2.723c.376 0 .681.305.681.681l-.681.681v.681zm-2.042-.681h1.362a.677.677 0 00-.002-.684l.002.003H.681v.681zm1.362 2.043a.681.681 0 000-1.362H.681v1.362h1.362zm4.766.681l-1.362-1.362v1.362h-.681v-4.085h2.723a1.36 1.36 0 01.001 2.041l-.001.001h-.681l.681 2.043h-.681zm-1.362-2.043h.681l.681-.681a.677.677 0 00-.002-.684l.002.003H5.447v1.362zm6.127 1.362H9.531v.681H8.85l1.362-4.085h.681l2.043 4.085h-1.362v-.681zm0-.681l-.681-2.043-.681 2.043h1.362zm6.128 1.362h-.681l-2.043-2.723v2.723h-1.362v-4.085h1.362l2.043 2.723v-2.723h.681v4.085zm4.766-1.362l-.681 1.362h-2.723v-4.085h2.723l.681.681a2.719 2.719 0 01-.006 2.06l.007-.018zm-.681 0a1.36 1.36 0 00.001-2.041l-.001-.001h-2.043v2.723h.681l1.362-.681zM12.255 0s10.894 4.085 10.894 10.213v10.894s-11.574-4.766-10.894-10.894V0zm21.107 18.383c2.043-1.362 4.085-2.723 6.809-2.723v-3.404c-2.723 1.362-5.447 3.404-6.809 6.128z"/><path fill="var(--color3, #afb1b8)" d="M32 19.064c1.362-3.404 4.766-6.128 8.17-7.489V2.724S24.51 8.171 24.51 17.022v14.979l2.043-.681v-1.362c0-4.085 2.043-8.17 5.447-10.894z"/><path fill="var(--color3, #afb1b8)" d="M29.957 24.511l.681-2.723a14.222 14.222 0 00-3.404 8.83v.021l3.404-1.362-.681-4.766zm.681.681l.681 3.404c4.085-2.723 8.851-6.809 8.851-11.574-3.404 0-6.128 1.362-8.17 3.404l-1.362 4.766z"/></symbol><symbol id="icon-logo-6" viewBox="0 0 62 32"><path fill="var(--color3, #afb1b8)" d="M31.304 14.609l-.696-1.391v-2.087l.696-1.391h2.783v2.087h-.696v-.696l-.696-.696h-.696v4.174h.696v-.696h.696v-.696h.696v1.391l-1.391.696-1.391-.696zm4.174 0v-4.87h2.783l.696 1.391v2.087l-.696 1.391-1.391.696-1.391-.696zm2.087 0v-4.174h-1.391v4.174a.696.696 0 00.699-.002l-.003.002a.696.696 0 00.699-.002l-.003.002zm2.783-4.87h.696l.696 3.478 1.391-3.478h.696l.696 5.565h-1.391V11.13l-.696 4.174h-.696l-.696-4.174v4.174h-1.391l.696-5.565zm4.869 0h2.087c.696 0 1.391 0 1.391 1.391l-1.391 1.391h-.696v2.783h-1.391V9.739zm2.087 2.087a.696.696 0 00.699-.002l-.003.002v-1.391h-1.391v1.391h.696zm3.479-2.087h.696l1.391 5.565h-.696l-.696-1.391h-.696l-.696 1.391h-.696l1.391-5.565zm.695 3.478l-.696-2.087v2.087h.696zm2.087-3.478h1.391l1.391 2.783V9.739h.696v5.565h-.696l-1.391-3.478v3.478h-1.391V9.739zm5.565 3.478l-1.391-3.478h1.391l.696 2.087.696-2.087h.696l-.696 3.478v2.087h-1.391v-2.087zm-26.434 4.87H32v2.087h-.696v-2.087h1.391zm2.782 2.087l-.696-.696h-.696l-.696.696.696-2.087h.696l.696 2.087zm-1.391-.696h.696v-1.391h-.696v1.391zm3.478.696a1.41 1.41 0 00.706-.002l-.01.002v-.696h.696v.696c-.2.117-.44.186-.696.186s-.496-.069-.702-.19l.007.004h-.696a1.402 1.402 0 01-.692-.687l-.004-.009v-.696c.142-.31.386-.553.687-.692l.009-.004h.696a2.133 2.133 0 01.708.002l-.012-.002a1.41 1.41 0 00-.706.002l.01-.002h-.696v1.391c0 .384.311.696.696.696zm3.478 0zm2.783 0h-.696v-2.087h.696v2.087zm1.391-2.087l1.391 2.087v-2.087h.696v2.087h-.696l-1.391-2.087v2.087h-.696v-2.087h.696zm4.87 0h-1.391v.696h.696v.696h-.696v.696H48v-2.087h2.087zM9.739 1.391L27.13 5.565v16L9.739 17.391v-16zM9.043 0v18.087l18.783 4.87V4.87L9.043 0z"/><path fill="var(--color3, #afb1b8)" d="M18.783 31.304L0 26.434V8.347l18.783 4.87v18.087z"/><path fill="var(--color3, #afb1b8)" d="M9.043 1.391l16.696 4.174-6.957 6.957-16.696-4.87 6.957-6.261zm0-1.391L0 8.348l18.783 4.87 9.043-8.348L9.043 0zm11.131 30.609l7.652-7.652-7.652-2.087v9.739z"/></symbol><symbol id="icon-mail" viewBox="0 0 43 32"><path fill="var(--color4, #757575)" d="M38.667 0H4C1.794 0 0 1.794 0 4v24c0 2.206 1.794 4 4 4h34.667c2.206 0 4-1.794 4-4V4c0-2.206-1.794-4-4-4zm0 2.667c.181 0 .353.038.511.103L21.334 18.236 3.49 2.77a1.32 1.32 0 01.511-.103h34.667zm0 26.666H4A1.334 1.334 0 012.667 28V5.587L20.46 21.008a1.335 1.335 0 001.748 0L40.001 5.587V28c0 .736-.598 1.333-1.333 1.333z"/></symbol><symbol id="icon-smartphone" viewBox="0 0 20 32"><path fill="var(--color4, #757575)" d="M18 0H4L0 4v26l4 2h14l2-2V4l-2-4zM4 2h14v22H2V4l2-2zm14 28H2v-4h16v4z"/><path fill="var(--color4, #757575)" d="M4 28c2 0 2 0 0 0 0 2 0 2 0 0-2 0-2 0 0 0z"/></symbol><symbol id="icon-twitter" viewBox="0 0 32 32"><path d="M32 6.4h-3.2l1.6-3.2-3.2 1.6c-1.133-1.955-3.215-3.25-5.6-3.25a6.45 6.45 0 00-5.584 9.681l-.017-.031c-6.4 0-11.2-3.2-14.4-6.4a6.279 6.279 0 00-.406 2.242 6.4 6.4 0 003.568 5.741l.037.017h-3.2c0 3.2 1.6 4.8 4.8 6.4-.48.129-1.031.203-1.6.203s-1.12-.074-1.645-.213l.045.01c1.6 1.6 3.2 4.8 6.4 4.8a12.674 12.674 0 01-6.746 1.922c-1.012 0-1.996-.117-2.94-.339l.087.017 9.6 3.2c10.604 0 19.2-8.596 19.2-19.2l3.2-3.2z"/></symbol></defs></svg>